Coordinates
version=1
nRows=4
nColumns=40
inDegrees=yes

Units are S.I. units (second, meters, Newtons, ...)
If the header above contains a line with 'inDegrees', this indicates whether rotational values are in degrees (yes) or radians (no).

endheader
time	pelvis_tilt	pelvis_list	pelvis_rotation	pelvis_tx	pelvis_ty	pelvis_tz	hip_flexion_r	hip_adduction_r	hip_rotation_r	knee_angle_r	knee_angle_r_beta	ankle_angle_r	subtalar_angle_r	mtp_angle_r	hip_flexion_l	hip_adduction_l	hip_rotation_l	knee_angle_l	knee_angle_l_beta	ankle_angle_l	subtalar_angle_l	mtp_angle_l	lumbar_extension	lumbar_bending	lumbar_rotation	arm_flex_r	arm_add_r	arm_rot_r	elbow_flex_r	pro_sup_r	wrist_flex_r	wrist_dev_r	arm_flex_l	arm_add_l	arm_rot_l	elbow_flex_l	pro_sup_l	wrist_flex_l	wrist_dev_l
      6.01999999999999957367	     10.05628682090517145298	      7.99081679606379680081	   -177.52487657190110326155	      0.32336605063724088716	      0.73242827274019728367	     -0.91059553152590089198	     59.92290272166636810880	    -48.03414020718176402625	    -28.06562445190019516872	     72.95717037434539520291	      1.27334283597079100936	      2.30286526115901990508	      0.00000000000000000000	      0.00000000000000000000	     81.05652330140979699991	    -44.32062702148169108796	      5.50250759688752832943	     76.80809311573540298923	      1.34055411704797289296	      4.98408863664968837526	      0.00000000000000000000	      0.00000000000000000000	    -68.66314592457929677494	      9.83547358366840285271	      8.99883355609754964632	     57.53013524197458394838	    -18.18857736798963742331	     29.97719044683590539080	     23.61863128485413909630	     86.43556716055823585521	      0.00000000000000000000	      0.00000000000000000000	     56.93775500282900736693	     -8.69235646007844486860	     39.10779627553005610707	     23.18779229979834966002	     86.34941294318960558485	      0.00000000000000000000	      0.00000000000000000000
      6.02500000000000035527	     10.05680610252409579175	      7.97617786316805243985	   -177.56208024343970919290	      0.32395707434988602058	      0.73206755402769652097	     -0.91056491757953939015	     60.07192070969295372151	    -48.00440058026145351278	    -27.90015456162131357587	     73.00448862154270557312	      1.27416869518065678513	      2.29689983496723160172	      0.00000000000000000000	      0.00000000000000000000	     81.13009843459600745064	    -44.32711528836566117207	      5.52766994819795076666	     76.86204555977818131396	      1.34149576483601729038	      4.93640246503098900632	      0.00000000000000000000	      0.00000000000000000000	    -68.53508194379151063913	      9.82203745133047334548	      8.98148769835224314306	     57.45324460726842374925	    -18.03753004221900368975	     29.52252736516934916722	     23.52027933219348554417	     86.31803391555604321184	      0.00000000000000000000	      0.00000000000000000000	     56.77771498575658881691	     -8.37249576786355476088	     37.95323951022831465707	     22.92787671422455275660	     86.44726920811251602572	      0.00000000000000000000	      0.00000000000000000000
      6.03000000000000024869	      9.88946534164328916461	      8.00146451645086287385	   -177.53508977656551337532	      0.32429311997217769026	      0.73213163058108465808	     -0.91045620036466612390	     59.87677223579220253669	    -47.99076722833838459792	    -27.95096669964934932295	     72.99661511322157991799	      1.27403127653676984110	      2.43767111856755880339	      0.00000000000000000000	      0.00000000000000000000	     81.04235786052186085726	    -44.35357299527823471408	      5.55435734581701190393	     76.88722054390633786625	      1.34193515119819095638	      4.90949622058315782169	      0.00000000000000000000	      0.00000000000000000000	    -68.59950833233821754220	      9.85879777803384627077	      8.99291701279956967596	     57.40872881347503664529	    -17.91174751636003037447	     29.25937165731819433745	     23.34979212796925196471	     86.21369791222635114991	      0.00000000000000000000	      0.00000000000000000000	     56.66669662847779420645	     -8.14145050036345097055	     37.10496642083079166241	     22.73312469637426147528	     86.44990726817803761151	      0.00000000000000000000	      0.00000000000000000000
      6.03500000000000014211	      9.68889863743513402028	      7.96019406250580452422	   -177.53444247849802195560	      0.32457213005105178816	      0.73238587721096848338	     -0.91036851194283308075	     59.71335843768570583734	    -48.01419555259916194245	    -27.93269616578824354747	     72.97754234968080311319	      1.27369839401552908953	      2.33078782020477692782	      0.00000000000000000000	      0.00000000000000000000	     80.78169999524857303186	    -44.38200329009988820417	      5.46984641341359711930	     76.89119662567090074390	      1.34200454691631110293	      4.96797191032741647376	      0.00000000000000000000	      0.00000000000000000000	    -68.70407424666365159283	      9.82634783145865498000	      8.95759158556114343241	     57.35316527676678077796	    -17.76672489758749762245	     28.78382430599764418844	     23.25405782299780810263	     86.23731328958434971810	      0.00000000000000000000	      0.00000000000000000000	     56.57935496062493996305	     -7.96680920729407926473	     36.32446742304193065820	     22.64577607407399995054	     86.44946065732476370158	      0.00000000000000000000	      0.00000000000000000000
